<?xml version="1.0" encoding="UTF-8" ?>
<svg width="414pt" height="660pt" viewBox="0.00 0.00 413.54 659.60" xmlns="http://www.w3.org/2000/svg" xmlns:xlink="http://www.w3.org/1999/xlink">
<g id="graph0" class="graph" transform="scale(1 1) rotate(0) translate(4 655.6)">
<title>G</title>
<polygon fill="#ffffff" stroke="transparent" points="-4,4 -4,-655.6 409.5442,-655.6 409.5442,4 -4,4"/>
<!-- Input bytecode -->
<g id="node1" class="node">
<title>Input bytecode</title>
<polygon fill="#d3d3d3" stroke="#000000" points="339.1307,-651.6 239.9577,-651.6 239.9577,-615.6 339.1307,-615.6 339.1307,-651.6"/>
<text text-anchor="middle" x="289.5442" y="-629.4" font-family="Times,serif" font-size="14.00" fill="#000000">Input bytecode</text>
</g>
<!-- Core parser -->
<g id="node2" class="node">
<title>Core parser</title>
<polygon fill="#d3d3d3" stroke="#000000" points="213.9511,-578.6 133.1373,-578.6 133.1373,-542.6 213.9511,-542.6 213.9511,-578.6"/>
<text text-anchor="middle" x="173.5442" y="-556.4" font-family="Times,serif" font-size="14.00" fill="#000000">Core parser</text>
</g>
<!-- Input bytecode&#45;&gt;Core parser -->
<g id="edge1" class="edge">
<title>Input bytecode-&gt;Core parser</title>
<path fill="none" stroke="#000000" d="M260.87,-615.5551C245.8122,-606.079 227.1756,-594.3508 210.9912,-584.1658"/>
<polygon fill="#000000" stroke="#000000" points="212.6183,-581.0544 202.2905,-578.6904 208.8899,-586.9788 212.6183,-581.0544"/>
</g>
<!-- Disassembly -->
<g id="node3" class="node">
<title>Disassembly</title>
<polygon fill="#d3d3d3" stroke="#000000" points="217.0868,-505.6 130.0016,-505.6 130.0016,-469.6 217.0868,-469.6 217.0868,-505.6"/>
<text text-anchor="middle" x="173.5442" y="-483.4" font-family="Times,serif" font-size="14.00" fill="#000000">Disassembly</text>
</g>
<!-- Core parser&#45;&gt;Disassembly -->
<g id="edge2" class="edge">
<title>Core parser-&gt;Disassembly</title>
<path fill="none" stroke="#000000" d="M167.6285,-542.5551C166.83,-534.4828 166.6047,-524.7764 166.9525,-515.7817"/>
<polygon fill="#000000" stroke="#000000" points="170.4522,-515.9007 167.624,-505.6904 163.4677,-515.4359 170.4522,-515.9007"/>
</g>
<!-- Control flow recovery -->
<g id="node4" class="node">
<title>Control flow recovery</title>
<polygon fill="#d3d3d3" stroke="#000000" points="145.946,-432.6 5.1424,-432.6 5.1424,-396.6 145.946,-396.6 145.946,-432.6"/>
<text text-anchor="middle" x="75.5442" y="-410.4" font-family="Times,serif" font-size="14.00" fill="#000000">Control flow recovery</text>
</g>
<!-- Core parser&#45;&gt;Control flow recovery -->
<g id="edge4" class="edge">
<title>Core parser-&gt;Control flow recovery</title>
<path fill="none" stroke="#000000" d="M153.3485,-542.5381C142.7356,-532.3729 130.0051,-519.0486 120.5442,-505.6 106.5328,-485.683 94.5375,-460.7572 86.4635,-442.031"/>
<polygon fill="#000000" stroke="#000000" points="89.6016,-440.4639 82.5013,-432.6002 83.148,-443.1753 89.6016,-440.4639"/>
</g>
<!-- Type and debug information -->
<g id="node5" class="node">
<title>Type and debug information</title>
<polygon fill="#d3d3d3" stroke="#000000" points="377.3389,-359.6 201.7495,-359.6 201.7495,-323.6 377.3389,-323.6 377.3389,-359.6"/>
<text text-anchor="middle" x="289.5442" y="-337.4" font-family="Times,serif" font-size="14.00" fill="#000000">Type and debug information</text>
</g>
<!-- Core parser&#45;&gt;Type and debug information -->
<g id="edge7" class="edge">
<title>Core parser-&gt;Type and debug information</title>
<path fill="none" stroke="#000000" d="M194.7659,-542.3858C205.4133,-532.3787 217.8574,-519.2478 226.5442,-505.6 254.4474,-461.7612 273.1143,-403.6343 282.4798,-369.6549"/>
<polygon fill="#000000" stroke="#000000" points="285.8788,-370.4926 285.0877,-359.9273 279.1175,-368.6799 285.8788,-370.4926"/>
</g>
<!-- Disassembly&#45;&gt;Core parser -->
<g id="edge3" class="edge">
<title>Disassembly-&gt;Core parser</title>
<path fill="none" stroke="#000000" d="M179.4644,-505.6904C180.2607,-513.7687 180.4839,-523.4769 180.134,-532.4688"/>
<polygon fill="#000000" stroke="#000000" points="176.6346,-532.3439 179.4599,-542.5551 183.619,-532.8107 176.6346,-532.3439"/>
</g>
<!-- Disassembly&#45;&gt;Control flow recovery -->
<g id="edge14" class="edge">
<title>Disassembly-&gt;Control flow recovery</title>
<path fill="none" stroke="#000000" d="M149.3195,-469.5551C136.8337,-460.2545 121.4356,-448.7844 107.9422,-438.7332"/>
<polygon fill="#000000" stroke="#000000" points="109.9403,-435.8573 99.8299,-432.6904 105.7587,-441.471 109.9403,-435.8573"/>
</g>
<!-- IR lifter -->
<g id="node7" class="node">
<title>IR lifter</title>
<polygon fill="#d3d3d3" stroke="#000000" points="208.7497,-286.6 148.3387,-286.6 148.3387,-250.6 208.7497,-250.6 208.7497,-286.6"/>
<text text-anchor="middle" x="178.5442" y="-264.4" font-family="Times,serif" font-size="14.00" fill="#000000">IR lifter</text>
</g>
<!-- Disassembly&#45;&gt;IR lifter -->
<g id="edge15" class="edge">
<title>Disassembly-&gt;IR lifter</title>
<path fill="none" stroke="#000000" d="M173.9619,-469.3049C174.8354,-431.0458 176.8601,-342.3623 177.901,-296.7742"/>
<polygon fill="#000000" stroke="#000000" points="181.4019,-296.7664 178.1312,-286.689 174.4038,-296.6065 181.4019,-296.7664"/>
</g>
<!-- Control flow optimizer -->
<g id="node6" class="node">
<title>Control flow optimizer</title>
<polygon fill="#d3d3d3" stroke="#000000" points="145.1326,-359.6 -.0442,-359.6 -.0442,-323.6 145.1326,-323.6 145.1326,-359.6"/>
<text text-anchor="middle" x="72.5442" y="-337.4" font-family="Times,serif" font-size="14.00" fill="#000000">Control flow optimizer</text>
</g>
<!-- Control flow recovery&#45;&gt;Control flow optimizer -->
<g id="edge5" class="edge">
<title>Control flow recovery-&gt;Control flow optimizer</title>
<path fill="none" stroke="#000000" d="M74.8026,-396.5551C74.4709,-388.4828 74.072,-378.7764 73.7024,-369.7817"/>
<polygon fill="#000000" stroke="#000000" points="77.1954,-369.5382 73.2876,-359.6904 70.2013,-369.8257 77.1954,-369.5382"/>
</g>
<!-- Type and debug information&#45;&gt;IR lifter -->
<g id="edge8" class="edge">
<title>Type and debug information-&gt;IR lifter</title>
<path fill="none" stroke="#000000" d="M262.106,-323.5551C247.8306,-314.1667 230.1938,-302.5678 214.8079,-292.4491"/>
<polygon fill="#000000" stroke="#000000" points="216.3297,-289.2609 206.0515,-286.6904 212.4834,-295.1095 216.3297,-289.2609"/>
</g>
<!-- IR optimizers -->
<g id="node8" class="node">
<title>IR optimizers</title>
<polygon fill="#d3d3d3" stroke="#000000" points="240.6391,-197.8 148.4493,-197.8 148.4493,-161.8 240.6391,-161.8 240.6391,-197.8"/>
<text text-anchor="middle" x="194.5442" y="-175.6" font-family="Times,serif" font-size="14.00" fill="#000000">IR optimizers</text>
</g>
<!-- Type and debug information&#45;&gt;IR optimizers -->
<g id="edge10" class="edge">
<title>Type and debug information-&gt;IR optimizers</title>
<path fill="none" stroke="#000000" d="M280.6756,-323.2035C268.411,-298.259 245.1061,-252.5981 221.5442,-215.8 219.53,-212.6542 217.3263,-209.4278 215.0742,-206.2605"/>
<polygon fill="#000000" stroke="#000000" points="217.8333,-204.1043 209.0967,-198.1108 212.1888,-208.2444 217.8333,-204.1043"/>
</g>
<!-- Output pseudocode -->
<g id="node9" class="node">
<title>Output pseudocode</title>
<polygon fill="#d3d3d3" stroke="#000000" points="373.0213,-109 248.0671,-109 248.0671,-73 373.0213,-73 373.0213,-109"/>
<text text-anchor="middle" x="310.5442" y="-86.8" font-family="Times,serif" font-size="14.00" fill="#000000">Output pseudocode</text>
</g>
<!-- Type and debug information&#45;&gt;Output pseudocode -->
<g id="edge16" class="edge">
<title>Type and debug information-&gt;Output pseudocode</title>
<path fill="none" stroke="#000000" d="M291.0545,-323.5775C294.663,-280.5151 303.8091,-171.3717 308.1661,-119.3789"/>
<polygon fill="#000000" stroke="#000000" points="311.672,-119.4533 309.0194,-109.196 304.6965,-118.8687 311.672,-119.4533"/>
</g>
<!-- Control flow optimizer&#45;&gt;IR lifter -->
<g id="edge6" class="edge">
<title>Control flow optimizer-&gt;IR lifter</title>
<path fill="none" stroke="#000000" d="M98.7465,-323.5551C112.3788,-314.1667 129.2211,-302.5678 143.914,-292.4491"/>
<polygon fill="#000000" stroke="#000000" points="146.0253,-295.2448 152.276,-286.6904 142.0549,-289.4797 146.0253,-295.2448"/>
</g>
<!-- IR lifter&#45;&gt;IR optimizers -->
<g id="edge9" class="edge">
<title>IR lifter-&gt;IR optimizers</title>
<path fill="none" stroke="#000000" d="M181.8594,-250.2006C184.0622,-237.975 186.9967,-221.6887 189.4884,-207.8599"/>
<polygon fill="#000000" stroke="#000000" points="192.9592,-208.3342 191.288,-197.872 186.0701,-207.0929 192.9592,-208.3342"/>
<text text-anchor="middle" x="202.7034" y="-220" font-family="Times,serif" font-size="14.00" fill="#000000">LLIL</text>
</g>
<!-- IR optimizers&#45;&gt;Output pseudocode -->
<g id="edge11" class="edge">
<title>IR optimizers-&gt;Output pseudocode</title>
<path fill="none" stroke="#000000" d="M190.0438,-161.441C188.4529,-150.4023 188.5748,-136.6665 195.859,-127 201.822,-119.0867 219.1416,-112.0906 238.5719,-106.4202"/>
<polygon fill="#000000" stroke="#000000" points="239.5353,-109.7852 248.2395,-103.7448 237.6682,-103.0388 239.5353,-109.7852"/>
<text text-anchor="middle" x="245.8868" y="-131.2" font-family="Times,serif" font-size="14.00" fill="#000000">HLIL (optimized)</text>
</g>
<!-- Haxe compiler -->
<g id="node10" class="node">
<title>Haxe compiler</title>
<polygon fill="#d3d3d3" stroke="#000000" points="404.8418,-36 306.2466,-36 306.2466,0 404.8418,0 404.8418,-36"/>
<text text-anchor="middle" x="355.5442" y="-13.8" font-family="Times,serif" font-size="14.00" fill="#000000">Haxe compiler</text>
</g>
<!-- Output pseudocode&#45;&gt;Haxe compiler -->
<g id="edge12" class="edge">
<title>Output pseudocode-&gt;Haxe compiler</title>
<path fill="none" stroke="#000000" d="M321.6678,-72.9551C326.9143,-64.4441 333.2806,-54.1165 339.0718,-44.7219"/>
<polygon fill="#000000" stroke="#000000" points="342.1245,-46.4396 344.3926,-36.0904 336.1657,-42.7663 342.1245,-46.4396"/>
</g>
<!-- Haxe compiler&#45;&gt;Input bytecode -->
<g id="edge13" class="edge">
<title>Haxe compiler-&gt;Input bytecode</title>
<path fill="none" stroke="#000000" d="M377.0389,-36.1353C390.5906,-49.678 405.5442,-69.494 405.5442,-91 405.5442,-560.6 405.5442,-560.6 405.5442,-560.6 405.5442,-590.5295 377.5409,-608.6711 349.0521,-619.3831"/>
<polygon fill="#000000" stroke="#000000" points="347.7063,-616.1455 339.4118,-622.7374 350.0067,-622.7567 347.7063,-616.1455"/>
</g>
</g>
</svg>