<?xml version="1.0" encoding="UTF-8" standalone="no"?><!DOCTYPE svg PUBLIC "-//W3C//DTD SVG 1.1//EN" "http://www.w3.org/Graphics/SVG/1.1/DTD/svg11.dtd"><!-- Generated by graphviz version 2.40.1 (20161225.0304)
 --><!-- Title: G Pages: 1 --><svg xmlns="http://www.w3.org/2000/svg" xmlns:xlink="http://www.w3.org/1999/xlink" width="342pt" height="404pt" viewBox="0.00 0.00 342.10 404.00">
<g id="graph0" class="graph" transform="scale(1 1) rotate(0) translate(4 400)">
<title>G</title>
<polygon fill="#ffffff" stroke="transparent" points="-4,4 -4,-400 338.0979,-400 338.0979,4 -4,4"/>
<!-- Input bytecode -->
<g id="node1" class="node">
<title>Input bytecode</title>
<polygon fill="#d3d3d3" stroke="#000000" points="207.7871,-396 108.6141,-396 108.6141,-360 207.7871,-360 207.7871,-396"/>
<text text-anchor="middle" x="158.2006" y="-373.8" font-family="Times,serif" font-size="14.00" fill="#000000">Input bytecode</text>
</g>
<!-- Core parser -->
<g id="node2" class="node">
<title>Core parser</title>
<polygon fill="#d3d3d3" stroke="#000000" points="198.6075,-324 117.7937,-324 117.7937,-288 198.6075,-288 198.6075,-324"/>
<text text-anchor="middle" x="158.2006" y="-301.8" font-family="Times,serif" font-size="14.00" fill="#000000">Core parser</text>
</g>
<!-- Input bytecode&#45;&gt;Core parser -->
<g id="edge1" class="edge">
<title>Input bytecode-&gt;Core parser</title>
<path fill="none" stroke="#000000" d="M158.2006,-359.8314C158.2006,-352.131 158.2006,-342.9743 158.2006,-334.4166"/>
<polygon fill="#000000" stroke="#000000" points="161.7007,-334.4132 158.2006,-324.4133 154.7007,-334.4133 161.7007,-334.4132"/>
</g>
<!-- Control flow recovery -->
<g id="node3" class="node">
<title>Control flow recovery</title>
<polygon fill="#d3d3d3" stroke="#000000" points="140.6024,-252 -.2012,-252 -.2012,-216 140.6024,-216 140.6024,-252"/>
<text text-anchor="middle" x="70.2006" y="-229.8" font-family="Times,serif" font-size="14.00" fill="#000000">Control flow recovery</text>
</g>
<!-- Core parser&#45;&gt;Control flow recovery -->
<g id="edge2" class="edge">
<title>Core parser-&gt;Control flow recovery</title>
<path fill="none" stroke="#000000" d="M135.9945,-287.8314C125.1556,-278.9632 111.9562,-268.1637 100.2328,-258.5718"/>
<polygon fill="#000000" stroke="#000000" points="102.3556,-255.7864 92.3996,-252.1628 97.9229,-261.2041 102.3556,-255.7864"/>
</g>
<!-- Type and debug information -->
<g id="node4" class="node">
<title>Type and debug information</title>
<polygon fill="#d3d3d3" stroke="#000000" points="333.9953,-252 158.4059,-252 158.4059,-216 333.9953,-216 333.9953,-252"/>
<text text-anchor="middle" x="246.2006" y="-229.8" font-family="Times,serif" font-size="14.00" fill="#000000">Type and debug information</text>
</g>
<!-- Core parser&#45;&gt;Type and debug information -->
<g id="edge3" class="edge">
<title>Core parser-&gt;Type and debug information</title>
<path fill="none" stroke="#000000" d="M180.4067,-287.8314C191.2456,-278.9632 204.445,-268.1637 216.1684,-258.5718"/>
<polygon fill="#000000" stroke="#000000" points="218.4783,-261.2041 224.0016,-252.1628 214.0456,-255.7864 218.4783,-261.2041"/>
</g>
<!-- IR lifter -->
<g id="node5" class="node">
<title>IR lifter</title>
<polygon fill="#d3d3d3" stroke="#000000" points="218.4061,-180 157.9951,-180 157.9951,-144 218.4061,-144 218.4061,-180"/>
<text text-anchor="middle" x="188.2006" y="-157.8" font-family="Times,serif" font-size="14.00" fill="#000000">IR lifter</text>
</g>
<!-- Control flow recovery&#45;&gt;IR lifter -->
<g id="edge4" class="edge">
<title>Control flow recovery-&gt;IR lifter</title>
<path fill="none" stroke="#000000" d="M99.977,-215.8314C115.0699,-206.6221 133.5763,-195.3301 149.7349,-185.4706"/>
<polygon fill="#000000" stroke="#000000" points="151.7204,-188.3593 158.4337,-180.1628 148.0743,-182.3838 151.7204,-188.3593"/>
</g>
<!-- Type and debug information&#45;&gt;IR lifter -->
<g id="edge5" class="edge">
<title>Type and debug information-&gt;IR lifter</title>
<path fill="none" stroke="#000000" d="M231.5648,-215.8314C224.8845,-207.5386 216.8438,-197.557 209.5102,-188.4533"/>
<polygon fill="#000000" stroke="#000000" points="212.0325,-186.0052 203.0335,-180.4133 206.5812,-190.3965 212.0325,-186.0052"/>
</g>
<!-- IR optimizer -->
<g id="node6" class="node">
<title>IR optimizer</title>
<polygon fill="#d3d3d3" stroke="#000000" points="260.8501,-108 173.5511,-108 173.5511,-72 260.8501,-72 260.8501,-108"/>
<text text-anchor="middle" x="217.2006" y="-85.8" font-family="Times,serif" font-size="14.00" fill="#000000">IR optimizer</text>
</g>
<!-- Type and debug information&#45;&gt;IR optimizer -->
<g id="edge7" class="edge">
<title>Type and debug information-&gt;IR optimizer</title>
<path fill="none" stroke="#000000" d="M242.5277,-215.7623C237.5596,-191.0928 228.6515,-146.8598 222.8341,-117.9731"/>
<polygon fill="#000000" stroke="#000000" points="226.2491,-117.2018 220.8436,-108.0896 219.3869,-118.5838 226.2491,-117.2018"/>
</g>
<!-- IR lifter&#45;&gt;IR optimizer -->
<g id="edge6" class="edge">
<title>IR lifter-&gt;IR optimizer</title>
<path fill="none" stroke="#000000" d="M195.5185,-143.8314C198.6882,-135.9617 202.4706,-126.5712 205.9819,-117.8533"/>
<polygon fill="#000000" stroke="#000000" points="209.2945,-118.9968 209.7841,-108.4133 202.8014,-116.3815 209.2945,-118.9968"/>
</g>
<!-- Output pseudocode -->
<g id="node7" class="node">
<title>Output pseudocode</title>
<polygon fill="#d3d3d3" stroke="#000000" points="279.6777,-36 154.7235,-36 154.7235,0 279.6777,0 279.6777,-36"/>
<text text-anchor="middle" x="217.2006" y="-13.8" font-family="Times,serif" font-size="14.00" fill="#000000">Output pseudocode</text>
</g>
<!-- IR optimizer&#45;&gt;Output pseudocode -->
<g id="edge8" class="edge">
<title>IR optimizer-&gt;Output pseudocode</title>
<path fill="none" stroke="#000000" d="M217.2006,-71.8314C217.2006,-64.131 217.2006,-54.9743 217.2006,-46.4166"/>
<polygon fill="#000000" stroke="#000000" points="220.7007,-46.4132 217.2006,-36.4133 213.7007,-46.4133 220.7007,-46.4132"/>
</g>
</g>
</svg>