<?xml version="1.0" encoding="UTF-8" ?>
<svg xmlns="http://www.w3.org/2000/svg" xmlns:xlink="http://www.w3.org/1999/xlink" width="398pt" height="548pt" viewBox="0.00 0.00 397.77 548.00">
<g id="graph0" class="graph" transform="scale(1 1) rotate(0) translate(4 544)">
<title>G</title>
<polygon fill="#ffffff" stroke="transparent" points="-4,4 -4,-544 393.7707,-544 393.7707,4 -4,4"/>
<!-- Input bytecode -->
<g id="node1" class="node">
<title>Input bytecode</title>
<polygon fill="#d3d3d3" stroke="#000000" points="332.3572,-540 233.1842,-540 233.1842,-504 332.3572,-504 332.3572,-540"/>
<text text-anchor="middle" x="282.7707" y="-517.8" font-family="Times,serif" font-size="14.00" fill="#000000">Input bytecode</text>
</g>
<!-- Core parser -->
<g id="node2" class="node">
<title>Core parser</title>
<polygon fill="#d3d3d3" stroke="#000000" points="216.1776,-468 135.3638,-468 135.3638,-432 216.1776,-432 216.1776,-468"/>
<text text-anchor="middle" x="175.7707" y="-445.8" font-family="Times,serif" font-size="14.00" fill="#000000">Core parser</text>
</g>
<!-- Input bytecode&#45;&gt;Core parser -->
<g id="edge1" class="edge">
<title>Input bytecode-&gt;Core parser</title>
<path fill="none" stroke="#000000" d="M255.7701,-503.8314C242.3376,-494.7927 225.9234,-483.7476 211.4668,-474.0198"/>
<polygon fill="#000000" stroke="#000000" points="213.0132,-470.8418 202.7627,-468.1628 209.1053,-476.6494 213.0132,-470.8418"/>
</g>
<!-- Disassembly -->
<g id="node3" class="node">
<title>Disassembly</title>
<polygon fill="#d3d3d3" stroke="#000000" points="87.3133,-396 .2281,-396 .2281,-360 87.3133,-360 87.3133,-396"/>
<text text-anchor="middle" x="43.7707" y="-373.8" font-family="Times,serif" font-size="14.00" fill="#000000">Disassembly</text>
</g>
<!-- Core parser&#45;&gt;Disassembly -->
<g id="edge2" class="edge">
<title>Core parser-&gt;Disassembly</title>
<path fill="none" stroke="#000000" d="M136.5091,-431.8314C118.5634,-422.5368 97.4997,-411.1208 79.9434,-401.1971"/>
<polygon fill="#000000" stroke="#000000" points="81.5378,-398.0773 71.1174,-396.1628 78.0696,-404.1577 81.5378,-398.0773"/>
</g>
<!-- Control flow recovery -->
<g id="node4" class="node">
<title>Control flow recovery</title>
<polygon fill="#d3d3d3" stroke="#000000" points="246.1725,-396 105.3689,-396 105.3689,-360 246.1725,-360 246.1725,-396"/>
<text text-anchor="middle" x="175.7707" y="-373.8" font-family="Times,serif" font-size="14.00" fill="#000000">Control flow recovery</text>
</g>
<!-- Core parser&#45;&gt;Control flow recovery -->
<g id="edge4" class="edge">
<title>Core parser-&gt;Control flow recovery</title>
<path fill="none" stroke="#000000" d="M175.7707,-431.8314C175.7707,-424.131 175.7707,-414.9743 175.7707,-406.4166"/>
<polygon fill="#000000" stroke="#000000" points="179.2708,-406.4132 175.7707,-396.4133 172.2708,-406.4133 179.2708,-406.4132"/>
</g>
<!-- Type and debug information -->
<g id="node5" class="node">
<title>Type and debug information</title>
<polygon fill="#d3d3d3" stroke="#000000" points="361.5654,-324 185.976,-324 185.976,-288 361.5654,-288 361.5654,-324"/>
<text text-anchor="middle" x="273.7707" y="-301.8" font-family="Times,serif" font-size="14.00" fill="#000000">Type and debug information</text>
</g>
<!-- Core parser&#45;&gt;Type and debug information -->
<g id="edge7" class="edge">
<title>Core parser-&gt;Type and debug information</title>
<path fill="none" stroke="#000000" d="M214.0407,-431.9204C228.8849,-423.0745 244.7015,-411.0508 254.7707,-396 267.0013,-377.7186 271.5711,-353.0565 273.1831,-334.1716"/>
<polygon fill="#000000" stroke="#000000" points="276.683,-334.2816 273.8152,-324.0823 269.6967,-333.8438 276.683,-334.2816"/>
</g>
<!-- Disassembly&#45;&gt;Core parser -->
<g id="edge3" class="edge">
<title>Disassembly-&gt;Core parser</title>
<path fill="none" stroke="#000000" d="M83.021,-396.1628C100.9655,-405.4565 122.0293,-416.8724 139.587,-426.7967"/>
<polygon fill="#000000" stroke="#000000" points="137.9935,-429.917 148.4139,-431.8314 141.4616,-423.8366 137.9935,-429.917"/>
</g>
<!-- Control flow optimizer -->
<g id="node6" class="node">
<title>Control flow optimizer</title>
<polygon fill="#d3d3d3" stroke="#000000" points="168.3591,-324 23.1823,-324 23.1823,-288 168.3591,-288 168.3591,-324"/>
<text text-anchor="middle" x="95.7707" y="-301.8" font-family="Times,serif" font-size="14.00" fill="#000000">Control flow optimizer</text>
</g>
<!-- Control flow recovery&#45;&gt;Control flow optimizer -->
<g id="edge5" class="edge">
<title>Control flow recovery-&gt;Control flow optimizer</title>
<path fill="none" stroke="#000000" d="M155.5833,-359.8314C145.9193,-351.1337 134.1911,-340.5783 123.6891,-331.1265"/>
<polygon fill="#000000" stroke="#000000" points="125.726,-328.251 115.9516,-324.1628 121.0432,-333.454 125.726,-328.251"/>
</g>
<!-- IR lifter -->
<g id="node7" class="node">
<title>IR lifter</title>
<polygon fill="#d3d3d3" stroke="#000000" points="251.9762,-252 191.5652,-252 191.5652,-216 251.9762,-216 251.9762,-252"/>
<text text-anchor="middle" x="221.7707" y="-229.8" font-family="Times,serif" font-size="14.00" fill="#000000">IR lifter</text>
</g>
<!-- Type and debug information&#45;&gt;IR lifter -->
<g id="edge8" class="edge">
<title>Type and debug information-&gt;IR lifter</title>
<path fill="none" stroke="#000000" d="M260.6489,-287.8314C254.7208,-279.6232 247.5978,-269.7606 241.0774,-260.7323"/>
<polygon fill="#000000" stroke="#000000" points="243.7615,-258.4708 235.0692,-252.4133 238.0867,-262.5693 243.7615,-258.4708"/>
</g>
<!-- IR optimizer -->
<g id="node8" class="node">
<title>IR optimizer</title>
<polygon fill="#d3d3d3" stroke="#000000" points="323.4202,-180 236.1212,-180 236.1212,-144 323.4202,-144 323.4202,-180"/>
<text text-anchor="middle" x="279.7707" y="-157.8" font-family="Times,serif" font-size="14.00" fill="#000000">IR optimizer</text>
</g>
<!-- Type and debug information&#45;&gt;IR optimizer -->
<g id="edge10" class="edge">
<title>Type and debug information-&gt;IR optimizer</title>
<path fill="none" stroke="#000000" d="M274.5306,-287.7623C275.554,-263.201 277.3854,-219.2474 278.5893,-190.3541"/>
<polygon fill="#000000" stroke="#000000" points="282.0975,-190.2267 279.017,-180.0896 275.1036,-189.9352 282.0975,-190.2267"/>
</g>
<!-- Control flow optimizer&#45;&gt;IR lifter -->
<g id="edge6" class="edge">
<title>Control flow optimizer-&gt;IR lifter</title>
<path fill="none" stroke="#000000" d="M127.5658,-287.8314C144.2037,-278.324 164.7263,-266.5968 182.3647,-256.5177"/>
<polygon fill="#000000" stroke="#000000" points="184.3438,-259.418 191.2897,-251.4177 180.8708,-253.3403 184.3438,-259.418"/>
</g>
<!-- IR lifter&#45;&gt;IR optimizer -->
<g id="edge9" class="edge">
<title>IR lifter-&gt;IR optimizer</title>
<path fill="none" stroke="#000000" d="M236.4065,-215.8314C243.0868,-207.5386 251.1275,-197.557 258.4611,-188.4533"/>
<polygon fill="#000000" stroke="#000000" points="261.3901,-190.3965 264.9378,-180.4133 255.9388,-186.0052 261.3901,-190.3965"/>
</g>
<!-- Output pseudocode -->
<g id="node9" class="node">
<title>Output pseudocode</title>
<polygon fill="#d3d3d3" stroke="#000000" points="349.2478,-108 224.2936,-108 224.2936,-72 349.2478,-72 349.2478,-108"/>
<text text-anchor="middle" x="286.7707" y="-85.8" font-family="Times,serif" font-size="14.00" fill="#000000">Output pseudocode</text>
</g>
<!-- IR optimizer&#45;&gt;Output pseudocode -->
<g id="edge11" class="edge">
<title>IR optimizer-&gt;Output pseudocode</title>
<path fill="none" stroke="#000000" d="M281.5371,-143.8314C282.2857,-136.131 283.176,-126.9743 284.008,-118.4166"/>
<polygon fill="#000000" stroke="#000000" points="287.4963,-118.7051 284.9805,-108.4133 280.5292,-118.0276 287.4963,-118.7051"/>
</g>
<!-- Haxe compiler -->
<g id="node10" class="node">
<title>Haxe compiler</title>
<polygon fill="#d3d3d3" stroke="#000000" points="381.0683,-36 282.4731,-36 282.4731,0 381.0683,0 381.0683,-36"/>
<text text-anchor="middle" x="331.7707" y="-13.8" font-family="Times,serif" font-size="14.00" fill="#000000">Haxe compiler</text>
</g>
<!-- Output pseudocode&#45;&gt;Haxe compiler -->
<g id="edge12" class="edge">
<title>Output pseudocode-&gt;Haxe compiler</title>
<path fill="none" stroke="#000000" d="M298.1261,-71.8314C303.2033,-63.7079 309.2934,-53.9637 314.8883,-45.0118"/>
<polygon fill="#000000" stroke="#000000" points="317.9304,-46.7483 320.2624,-36.4133 311.9944,-43.0383 317.9304,-46.7483"/>
</g>
<!-- Haxe compiler&#45;&gt;Input bytecode -->
<g id="edge13" class="edge">
<title>Haxe compiler-&gt;Input bytecode</title>
<path fill="none" stroke="#000000" d="M344.3558,-36.1522C361.4141,-62.5759 389.7707,-113.7565 389.7707,-162 389.7707,-378 389.7707,-378 389.7707,-378 389.7707,-427.7487 348.1166,-471.4757 316.787,-497.3285"/>
<polygon fill="#000000" stroke="#000000" points="314.293,-494.8416 308.6724,-503.8226 318.6669,-500.3069 314.293,-494.8416"/>
</g>
</g>
</svg>